<svg width="101" height="19" viewBox="0 0 101 19" fill="none" xmlns="http://www.w3.org/2000/svg">
<path d="M8.432 4.25566C7.744 4.25566 7.128 4.39166 6.584 4.66367C6.056 4.93567 5.608 5.32767 5.24 5.83967C4.872 6.33567 4.592 6.94367 4.4 7.66367C4.224 8.38367 4.136 9.19167 4.136 10.0877C4.136 11.3037 4.28 12.3437 4.568 13.2077C4.872 14.0557 5.344 14.7037 5.984 15.1517C6.624 15.5997 7.44 15.8237 8.432 15.8237C9.136 15.8237 9.832 15.7437 10.52 15.5837C11.224 15.4237 11.984 15.1997 12.8 14.9117V17.9597C12.048 18.2637 11.304 18.4877 10.568 18.6317C9.832 18.7757 9.008 18.8477 8.096 18.8477C6.336 18.8477 4.88 18.4877 3.728 17.7677C2.592 17.0317 1.752 16.0077 1.208 14.6957C0.664 13.3677 0.392 11.8237 0.392 10.0637C0.392 8.76767 0.568 7.58367 0.92 6.51167C1.272 5.42367 1.784 4.48767 2.456 3.70366C3.144 2.91967 3.984 2.31167 4.976 1.87967C5.984 1.44767 7.136 1.23167 8.432 1.23167C9.28 1.23167 10.128 1.34367 10.976 1.56767C11.84 1.77567 12.664 2.06367 13.448 2.43167L12.272 5.38367C11.632 5.07967 10.984 4.81566 10.328 4.59166C9.688 4.36766 9.056 4.25566 8.432 4.25566ZM28.0573 12.0317C28.0573 13.1197 27.9053 14.0877 27.6013 14.9357C27.3133 15.7837 26.8893 16.5037 26.3293 17.0957C25.7853 17.6717 25.1213 18.1117 24.3373 18.4157C23.5533 18.7037 22.6653 18.8477 21.6733 18.8477C20.7613 18.8477 19.9133 18.7037 19.1293 18.4157C18.3613 18.1117 17.6973 17.6717 17.1373 17.0957C16.5773 16.5037 16.1373 15.7837 15.8173 14.9357C15.5133 14.0877 15.3613 13.1197 15.3613 12.0317C15.3613 10.5757 15.6173 9.35167 16.1293 8.35967C16.6413 7.35167 17.3773 6.58367 18.3373 6.05567C19.2973 5.52767 20.4333 5.26366 21.7453 5.26366C22.9773 5.26366 24.0653 5.52767 25.0093 6.05567C25.9533 6.58367 26.6973 7.35167 27.2413 8.35967C27.7853 9.35167 28.0573 10.5757 28.0573 12.0317ZM19.0093 12.0317C19.0093 12.8957 19.0973 13.6237 19.2733 14.2157C19.4653 14.7917 19.7613 15.2317 20.1613 15.5357C20.5613 15.8237 21.0813 15.9677 21.7213 15.9677C22.3613 15.9677 22.8733 15.8237 23.2573 15.5357C23.6573 15.2317 23.9453 14.7917 24.1213 14.2157C24.3133 13.6237 24.4093 12.8957 24.4093 12.0317C24.4093 11.1677 24.3133 10.4477 24.1213 9.87167C23.9453 9.29567 23.6573 8.86367 23.2573 8.57567C22.8573 8.28767 22.3373 8.14367 21.6973 8.14367C20.7533 8.14367 20.0653 8.47167 19.6333 9.12767C19.2173 9.76767 19.0093 10.7357 19.0093 12.0317ZM35.1646 18.8477C33.7086 18.8477 32.5166 18.2797 31.5886 17.1437C30.6766 15.9917 30.2206 14.3037 30.2206 12.0797C30.2206 9.83967 30.6846 8.14367 31.6126 6.99167C32.5406 5.83966 33.7566 5.26366 35.2606 5.26366C35.8846 5.26366 36.4366 5.35167 36.9166 5.52767C37.3966 5.68767 37.8046 5.91167 38.1406 6.19967C38.4926 6.48767 38.7886 6.81567 39.0286 7.18367H39.1486C39.1006 6.92767 39.0446 6.55967 38.9806 6.07967C38.9166 5.58367 38.8846 5.07967 38.8846 4.56767V0.367665H42.4606V18.6077H39.7246L39.0286 16.9037H38.8846C38.6606 17.2557 38.3726 17.5837 38.0206 17.8877C37.6846 18.1757 37.2846 18.4077 36.8206 18.5837C36.3566 18.7597 35.8046 18.8477 35.1646 18.8477ZM36.4126 15.9917C37.4046 15.9917 38.1006 15.7037 38.5006 15.1277C38.9006 14.5357 39.1086 13.6557 39.1246 12.4877V12.1037C39.1246 10.8237 38.9246 9.84767 38.5246 9.17567C38.1406 8.50367 37.4206 8.16767 36.3646 8.16767C35.5806 8.16767 34.9646 8.51167 34.5166 9.19967C34.0686 9.87167 33.8446 10.8477 33.8446 12.1277C33.8446 13.4077 34.0686 14.3757 34.5166 15.0317C34.9646 15.6717 35.5966 15.9917 36.4126 15.9917ZM51.6001 5.26366C52.8161 5.26366 53.8561 5.49567 54.7201 5.95967C55.6001 6.42367 56.2801 7.09567 56.7601 7.97567C57.2401 8.85567 57.4801 9.93567 57.4801 11.2157V12.9437H49.0321C49.0641 13.9517 49.3601 14.7437 49.9201 15.3197C50.4961 15.8957 51.2881 16.1837 52.2961 16.1837C53.1441 16.1837 53.9121 16.1037 54.6001 15.9437C55.2881 15.7677 56.0001 15.5037 56.7361 15.1517V17.9117C56.0961 18.2317 55.4161 18.4637 54.6961 18.6077C53.9921 18.7677 53.1361 18.8477 52.1281 18.8477C50.8161 18.8477 49.6561 18.6077 48.6481 18.1277C47.6401 17.6317 46.8481 16.8877 46.2721 15.8957C45.6961 14.9037 45.4081 13.6557 45.4081 12.1517C45.4081 10.6157 45.6641 9.34367 46.1761 8.33567C46.7041 7.31167 47.4321 6.54367 48.3601 6.03166C49.2881 5.51966 50.3681 5.26366 51.6001 5.26366ZM51.6241 7.80767C50.9361 7.80767 50.3601 8.03167 49.8961 8.47967C49.4481 8.92767 49.1841 9.62367 49.1041 10.5677H54.1201C54.1201 10.0397 54.0241 9.56767 53.8321 9.15167C53.6561 8.73567 53.3841 8.40767 53.0161 8.16767C52.6481 7.92767 52.1841 7.80767 51.6241 7.80767ZM59.8758 16.9277C59.8758 16.1917 60.0758 15.6797 60.4758 15.3917C60.8758 15.0877 61.3638 14.9357 61.9398 14.9357C62.4998 14.9357 62.9798 15.0877 63.3798 15.3917C63.7798 15.6797 63.9798 16.1917 63.9798 16.9277C63.9798 17.6317 63.7798 18.1437 63.3798 18.4637C62.9798 18.7677 62.4998 18.9197 61.9398 18.9197C61.3638 18.9197 60.8758 18.7677 60.4758 18.4637C60.0758 18.1437 59.8758 17.6317 59.8758 16.9277ZM73.9196 18.6077H66.1196V16.5437L68.2076 15.5837V4.49567L66.1196 3.53567V1.47166H73.9196V3.53567L71.8316 4.49567V15.5837L73.9196 16.5437V18.6077ZM83.9917 5.26366C85.3997 5.26366 86.5277 5.64767 87.3757 6.41567C88.2237 7.16767 88.6477 8.38367 88.6477 10.0637V18.6077H85.0717V10.9517C85.0717 10.0077 84.9037 9.30367 84.5677 8.83967C84.2317 8.35967 83.6957 8.11967 82.9597 8.11967C81.8717 8.11967 81.1277 8.49567 80.7277 9.24767C80.3277 9.98367 80.1277 11.0477 80.1277 12.4397V18.6077H76.5517V5.50367H79.2877L79.7677 7.18367H79.9597C80.2477 6.73567 80.5997 6.37567 81.0157 6.10367C81.4317 5.81567 81.8957 5.60767 82.4077 5.47966C82.9197 5.33566 83.4477 5.26366 83.9917 5.26366ZM97.8451 15.9917C98.2451 15.9917 98.6291 15.9517 98.9971 15.8717C99.3651 15.7917 99.7331 15.6957 100.101 15.5837V18.2477C99.7171 18.4077 99.2371 18.5437 98.6611 18.6557C98.1011 18.7837 97.4851 18.8477 96.8131 18.8477C96.0291 18.8477 95.3251 18.7197 94.7011 18.4637C94.0931 18.2077 93.6051 17.7677 93.2371 17.1437C92.8851 16.5037 92.7091 15.6237 92.7091 14.5037V8.19167H91.0051V6.67967L92.9731 5.47966L94.0051 2.71966H96.2851V5.50367H99.9571V8.19167H96.2851V14.5037C96.2851 14.9997 96.4291 15.3757 96.7171 15.6317C97.0051 15.8717 97.3811 15.9917 97.8451 15.9917Z" fill="white"/>
</svg>
